# xmcd
#
# Track frame offsets:
#	150
#	20283
#	38413
#	49759
#	66825
#	83451
#	98229
#	112289
#	127562
#	145465
#	163058
#	175226
#	193544
#	209224
#	227269
#	243430
#
# Disc length: 3498 seconds
#
# Revision: 1
# Processed by: cddbd v1.4PL0 Copyright (c) Steve Scherf et al.
# Submitted via: audiograbber 1.81.02
#
DISCID=d20da810
DTITLE=Various Artist - The Winners 2003 [Disc 1]
DYEAR=2003
DGENRE=Country
TTITLE0=Troy Cassar-Daley - Born To Survive
TTITLE1=Sara Storer - Tell These Hands
TTITLE2=Wolverines - You're Never Too Old To Sing A Country Song
TTITLE3=Karen O'Shea - Prayers For You
TTITLE4=Adam Brand - New England Highway
TTITLE5=Beccy Cole and Adam Harvey - How Wrong It Is
TTITLE6=Magnificent Seven - Tubular Cowbells
TTITLE7=Travis Sinclair - Kick The Kenny
TTITLE8=Beccy Cole - Life Goes On
TTITLE9=Luke O'Shea and Medicine Wheel - No Day Like Today
TTITLE10=Trev Warner - Chime Time
TTITLE11=Melinda Schneider and Michael Carr - Wearing White
TTITLE12=Steve Forde and The Flange - One Day At A Time
TTITLE13=Carter and Carter - Candlelight and Kisses
TTITLE14=John Williamson - Salisbury Street
TTITLE15=Lee Kernaghan - The Way It Is
EXTD=
EXTT0=
EXTT1=
EXTT2=
EXTT3=
EXTT4=
EXTT5=
EXTT6=
EXTT7=
EXTT8=
EXTT9=
EXTT10=
EXTT11=
EXTT12=
EXTT13=
EXTT14=
EXTT15=
PLAYORDER=
